<?xml version="1.0" encoding="utf-8"?>
<!-- Generator: Adobe Illustrator 26.3.1, SVG Export Plug-In . SVG Version: 6.00 Build 0)  -->
<svg version="1.1" id="Layer_1" xmlns="http://www.w3.org/2000/svg" xmlns:xlink="http://www.w3.org/1999/xlink" x="0px" y="0px"
	 viewBox="0 0 512 771" style="enable-background:new 0 0 512 771;" xml:space="preserve">
<style type="text/css">
	.st0{fill:url(#SVGID_1_);}
	.st1{fill:#FFFFFF;}
</style>
<linearGradient id="SVGID_1_" gradientUnits="userSpaceOnUse" x1="96.9727" y1="132.7381" x2="444.7872" y2="406.7031" gradientTransform="matrix(1 0 0 -1 0 514)">
	<stop  offset="0" style="stop-color:#651FFF"/>
	<stop  offset="1" style="stop-color:#F50057"/>
</linearGradient>
<path class="st0" d="M256,0L256,0C114.6,0,0,114.6,0,256v0.1c0,141.4,114.6,256,256,256h0.1c141.4,0,256-114.6,256-256V256
	C512,114.6,397.4,0,256,0z"/>
<path class="st1" d="M385.8,117l-59.9,64.9c-19.3-17.1-44.2-26.5-69.9-26.5c-25.8,0-50.6,9.4-69.9,26.5l-59.7-64.7H91v144.1
	c0,43.8,17.4,85.7,48.3,116.7c30.9,30.9,72.9,48.3,116.7,48.3c43.8,0,85.7-17.4,116.7-48.3C403.6,347,421,305.1,421,261.3V117H385.8
	z M334,261.3c0,18.3-6.5,36-18.2,50c-11.7,14-28,23.5-46,26.7v-53.7l55-59.9C330.8,235.8,334,248.5,334,261.3z M255.9,183
	c18.8,0,37,6.8,51.1,19.3l-50.9,55.2l-51.3-55.6C219,189.7,237.1,182.9,255.9,183z M187.6,224l54.6,59.3v55.1
	c-18-3.3-34.3-12.8-46.1-26.8c-11.7-14.1-18.2-31.8-18.2-50.1c-0.2-13.2,3-26.2,9.3-37.8L187.6,224z M119.3,261.7V149.9l48.4,52.5
	c-10,15-16,32.2-17.5,50.2s1.7,35.9,9.1,52.3c7.4,16.4,18.9,30.6,33.3,41.4c14.4,10.7,31.4,17.6,49.2,20v31.1
	c-33.6-3.5-64.8-19.3-87.4-44.4c-22.6-25.1-35.1-57.8-35.1-91.6V261.7z M393,261.7c0.1,34-12.5,66.7-35.3,91.9
	c-22.8,25.2-54.2,40.9-88,44.2v-31.5c17.8-2.3,34.7-9.1,49.1-19.8c14.4-10.7,25.9-24.8,33.4-41.1c7.5-16.3,10.7-34.3,9.3-52.2
	c-1.4-17.9-7.3-35.1-17.1-50.1l48.6-53V261.7z"/>
<path id="Text" class="st1" d="M184.8,580.8c0,7.1-0.9,13.6-2.7,19.5c-1.8,5.8-4.5,10.9-8.1,15.1c-3.6,4.2-8.2,7.5-13.7,9.8
	c-5.5,2.2-12.1,3.4-19.6,3.4c-7.6,0-14.1-1.1-19.6-3.4c-5.5-2.3-10.1-5.5-13.7-9.8c-3.6-4.2-6.3-9.3-8-15.1
	c-1.8-5.9-2.7-12.4-2.7-19.6c0-9.6,1.6-17.9,4.7-25c3.2-7.1,8-12.7,14.6-16.6c6.5-3.9,14.9-5.9,25-5.9c10.1,0,18.3,2,24.8,5.9
	c6.5,3.9,11.3,9.5,14.4,16.6C183.2,562.8,184.8,571.2,184.8,580.8z M117.2,580.8c0,6.5,0.8,12,2.4,16.7c1.6,4.6,4.2,8.2,7.7,10.8
	c3.5,2.5,7.9,3.7,13.4,3.7c5.6,0,10.1-1.2,13.6-3.7c3.5-2.5,6-6.1,7.5-10.8c1.6-4.7,2.4-10.3,2.4-16.7c0-9.7-1.8-17.4-5.4-22.9
	c-3.6-5.6-9.6-8.4-17.9-8.4c-5.5,0-10.1,1.3-13.6,3.8c-3.5,2.5-6,6.1-7.7,10.8C118,568.7,117.2,574.3,117.2,580.8z M330.7,534.6
	l-23.6,92.6h-22.4l-12.5-48.6c-0.3-0.9-0.6-2.3-1-4.2c-0.4-1.9-0.9-4-1.3-6.2c-0.5-2.3-0.9-4.4-1.3-6.4c-0.3-2-0.6-3.6-0.7-4.8
	c-0.1,1.2-0.4,2.8-0.8,4.8c-0.3,2-0.7,4.1-1.2,6.3c-0.4,2.2-0.8,4.3-1.3,6.3c-0.4,1.9-0.8,3.4-1,4.4l-12.5,48.5h-22.3l-23.6-92.6
	h19.3l11.8,50.5c0.3,1.5,0.7,3.3,1.1,5.4c0.5,2.1,0.9,4.3,1.3,6.7c0.5,2.3,0.9,4.5,1.2,6.7c0.4,2.1,0.7,3.9,0.8,5.5
	c0.2-1.6,0.5-3.5,0.8-5.6c0.3-2.2,0.7-4.3,1.1-6.5c0.4-2.2,0.8-4.3,1.3-6.2c0.4-1.9,0.8-3.4,1.1-4.6l13.5-51.9h18.6l13.5,51.9
	c0.3,1.1,0.6,2.7,1,4.6c0.4,1.9,0.8,4,1.3,6.2c0.4,2.2,0.8,4.4,1.1,6.6c0.4,2.1,0.7,3.9,0.8,5.5c0.3-2.1,0.7-4.7,1.2-7.7
	c0.5-3,1.1-6.1,1.7-9.1c0.6-3,1.2-5.5,1.6-7.5l11.8-50.5H330.7z M355.4,627.2v-92.6H375V611h37.6v16.2H355.4z M25,692.9
	c9,0,15.5,1.8,19.6,5.3c4.1,3.5,6.2,8.5,6.2,15c0,2.9-0.5,5.7-1.5,8.4c-1,2.6-2.5,5-4.7,7c-2.2,2-5,3.6-8.5,4.8
	c-3.5,1.1-7.8,1.7-12.8,1.7h-8.5v27.3H6.8v-69.5H25z M24.2,699.8h-9.3v28.3h7.6c4.4,0,8.1-0.5,11.1-1.4c3-1,5.2-2.5,6.7-4.6
	c1.5-2.2,2.2-5,2.2-8.6c0-4.6-1.5-8.1-4.4-10.3C35.1,700.9,30.5,699.8,24.2,699.8z M84.1,692.9c5.7,0,10.4,0.7,14.1,2.1
	c3.7,1.4,6.5,3.5,8.4,6.4c1.8,2.9,2.8,6.6,2.8,11c0,3.7-0.7,6.7-2,9.2c-1.3,2.4-3.1,4.4-5.2,5.9c-2.2,1.5-4.5,2.7-6.9,3.5l19.1,31.2
	h-9.4l-17-29H73.4v29h-8.1v-69.5H84.1z M83.7,699.9H73.4v26.7h11c5.7,0,9.8-1.2,12.5-3.5c2.7-2.3,4-5.7,4-10.2c0-4.7-1.4-8.1-4.3-10
	C93.9,700.9,89.5,699.9,83.7,699.9z M185.7,727.5c0,5.4-0.7,10.2-2,14.6c-1.4,4.4-3.4,8.1-6.1,11.3c-2.7,3.1-6,5.6-9.9,7.3
	c-4,1.7-8.6,2.6-13.8,2.6c-5.4,0-10.1-0.9-14.1-2.6c-4-1.7-7.3-4.2-10-7.3c-2.6-3.2-4.6-7-5.9-11.4c-1.3-4.4-1.9-9.3-1.9-14.6
	c0-7.1,1.2-13.3,3.5-18.7c2.3-5.4,5.9-9.5,10.6-12.5c4.8-3,10.8-4.5,18-4.5c6.9,0,12.7,1.5,17.3,4.4c4.7,2.9,8.3,7.1,10.7,12.4
	C184.4,714,185.7,720.3,185.7,727.5z M130.4,727.5c0,5.9,0.8,11,2.5,15.3c1.7,4.3,4.2,7.6,7.7,10c3.5,2.3,7.9,3.5,13.3,3.5
	c5.4,0,9.8-1.2,13.2-3.5c3.5-2.3,6-5.7,7.6-10c1.6-4.3,2.5-9.4,2.5-15.3c0-9-1.9-16-5.7-21c-3.7-5.1-9.6-7.6-17.5-7.6
	c-5.4,0-9.8,1.2-13.3,3.5c-3.5,2.3-6.1,5.6-7.8,9.9C131.2,716.5,130.4,721.6,130.4,727.5z M222.5,762.4h-8.1V700h-21.9v-7.1h51.7
	v7.1h-21.8V762.4z M315,727.5c0,5.4-0.7,10.2-2,14.6c-1.4,4.4-3.4,8.1-6.1,11.3c-2.7,3.1-6,5.6-9.9,7.3c-4,1.7-8.6,2.6-13.8,2.6
	c-5.4,0-10.1-0.9-14.1-2.6c-4-1.7-7.3-4.2-10-7.3c-2.6-3.2-4.6-7-5.9-11.4c-1.3-4.4-1.9-9.3-1.9-14.6c0-7.1,1.2-13.3,3.5-18.7
	c2.3-5.4,5.9-9.5,10.6-12.5c4.8-3,10.8-4.5,18-4.5c6.9,0,12.7,1.5,17.3,4.4c4.7,2.9,8.3,7.1,10.7,12.4
	C313.8,714,315,720.3,315,727.5z M259.7,727.5c0,5.9,0.8,11,2.5,15.3c1.7,4.3,4.2,7.6,7.7,10c3.5,2.3,7.9,3.5,13.3,3.5
	c5.4,0,9.8-1.2,13.2-3.5c3.5-2.3,6-5.7,7.7-10c1.6-4.3,2.5-9.4,2.5-15.3c0-9-1.9-16-5.7-21c-3.7-5.1-9.6-7.6-17.5-7.6
	c-5.4,0-9.8,1.2-13.3,3.5c-3.5,2.3-6.1,5.6-7.8,9.9C260.5,716.5,259.7,721.6,259.7,727.5z M360.2,699c-3.8,0-7.3,0.7-10.4,2
	c-3,1.3-5.6,3.2-7.8,5.7c-2.1,2.5-3.8,5.5-4.9,9c-1.1,3.5-1.7,7.5-1.7,11.9c0,5.8,0.9,10.9,2.7,15.2c1.8,4.3,4.6,7.6,8.2,9.9
	c3.6,2.3,8.2,3.5,13.6,3.5c3.1,0,6-0.3,8.7-0.8c2.8-0.5,5.4-1.2,8-2v7c-2.5,1-5.2,1.6-8,2.1c-2.8,0.5-6.1,0.7-9.9,0.7
	c-7.1,0-13-1.5-17.7-4.4c-4.7-2.9-8.3-7.1-10.6-12.4c-2.3-5.4-3.5-11.7-3.5-19c0-5.3,0.7-10.1,2.2-14.4c1.5-4.4,3.6-8.1,6.5-11.3
	c2.9-3.2,6.3-5.6,10.5-7.3c4.1-1.7,8.9-2.6,14.3-2.6c3.5,0,6.9,0.3,10.2,1c3.3,0.7,6.2,1.7,8.8,3l-3.2,6.8c-2.2-1-4.7-1.9-7.3-2.6
	C366.1,699.4,363.2,699,360.2,699z M452,727.5c0,5.4-0.7,10.2-2,14.6c-1.4,4.4-3.4,8.1-6.1,11.3c-2.7,3.1-6,5.6-9.9,7.3
	c-4,1.7-8.6,2.6-13.8,2.6c-5.4,0-10.1-0.9-14.1-2.6c-4-1.7-7.3-4.2-10-7.3c-2.6-3.2-4.6-7-5.9-11.4c-1.3-4.4-1.9-9.3-1.9-14.6
	c0-7.1,1.2-13.3,3.5-18.7c2.3-5.4,5.9-9.5,10.6-12.5c4.8-3,10.8-4.5,18-4.5c6.9,0,12.7,1.5,17.3,4.4c4.7,2.9,8.3,7.1,10.7,12.4
	C450.8,714,452,720.3,452,727.5z M396.7,727.5c0,5.9,0.8,11,2.5,15.3c1.7,4.3,4.2,7.6,7.7,10c3.5,2.3,7.9,3.5,13.3,3.5
	c5.4,0,9.8-1.2,13.2-3.5c3.5-2.3,6-5.7,7.6-10c1.6-4.3,2.5-9.4,2.5-15.3c0-9-1.9-16-5.7-21c-3.7-5.1-9.6-7.6-17.5-7.6
	c-5.4,0-9.8,1.2-13.3,3.5c-3.5,2.3-6.1,5.6-7.8,9.9C397.5,716.5,396.7,721.6,396.7,727.5z M467.5,762.4v-69.5h8.1v62.2h30.8v7.2
	H467.5z"/>
</svg>
